<mxfile host="app.diagrams.net" modified="2021-09-23T06:57:08.789Z" agent="5.0 (X11; Linux x86_64) AppleWebKit/537.36 (KHTML, like Gecko) Chrome/95.0.4613.0 Safari/537.36 Edg/95.0.1000.0" etag="ZQ9pCBVRHATe9GfV0FWE" version="15.2.9" type="github">
  <diagram id="Hj7Q_Jciw4nzZQ8Qi_2c" name="Page-1">
    <mxGraphModel dx="1619" dy="1134" grid="1" gridSize="10" guides="1" tooltips="1" connect="1" arrows="1" fold="1" page="1" pageScale="1" pageWidth="827" pageHeight="1169" math="0" shadow="0">
      <root>
        <mxCell id="0" />
        <mxCell id="1" parent="0" />
        <mxCell id="A2cVZQFBHPuvANkPRbIw-1" value="" style="swimlane;startSize=0;" parent="1" vertex="1">
          <mxGeometry x="160" y="80" width="500" height="660" as="geometry" />
        </mxCell>
        <mxCell id="GTZ52rKqXmYIKtmkYB2n-2" value="" style="shape=ellipse;container=1;horizontal=1;horizontalStack=0;resizeParent=1;resizeParentMax=0;resizeLast=0;html=1;dashed=0;collapsible=0;" vertex="1" parent="A2cVZQFBHPuvANkPRbIw-1">
          <mxGeometry x="40" y="30" width="180" height="90" as="geometry" />
        </mxCell>
        <mxCell id="GTZ52rKqXmYIKtmkYB2n-3" value="UC1" style="html=1;strokeColor=none;fillColor=none;align=center;verticalAlign=middle;rotatable=0;" vertex="1" parent="GTZ52rKqXmYIKtmkYB2n-2">
          <mxGeometry width="180" height="22.5" as="geometry" />
        </mxCell>
        <mxCell id="GTZ52rKqXmYIKtmkYB2n-4" value="" style="line;strokeWidth=1;fillColor=none;rotatable=0;labelPosition=right;points=[];portConstraint=eastwest;dashed=0;resizeWidth=1;" vertex="1" parent="GTZ52rKqXmYIKtmkYB2n-2">
          <mxGeometry x="9" y="22.5" width="162" height="7.500000000000001" as="geometry" />
        </mxCell>
        <mxCell id="GTZ52rKqXmYIKtmkYB2n-5" value="Add refill data with a mobile phone instantly after filling" style="text;html=1;align=center;verticalAlign=middle;rotatable=0;whiteSpace=wrap;" vertex="1" parent="GTZ52rKqXmYIKtmkYB2n-2">
          <mxGeometry y="30.000000000000004" width="180" height="37.50000000000001" as="geometry" />
        </mxCell>
        <mxCell id="GTZ52rKqXmYIKtmkYB2n-8" value="" style="shape=ellipse;container=1;horizontal=1;horizontalStack=0;resizeParent=1;resizeParentMax=0;resizeLast=0;html=1;dashed=0;collapsible=0;" vertex="1" parent="A2cVZQFBHPuvANkPRbIw-1">
          <mxGeometry x="40" y="190" width="180" height="90" as="geometry" />
        </mxCell>
        <mxCell id="GTZ52rKqXmYIKtmkYB2n-9" value="UC2" style="html=1;strokeColor=none;fillColor=none;align=center;verticalAlign=middle;rotatable=0;" vertex="1" parent="GTZ52rKqXmYIKtmkYB2n-8">
          <mxGeometry y="1" width="180" height="22.5" as="geometry" />
        </mxCell>
        <mxCell id="GTZ52rKqXmYIKtmkYB2n-10" value="" style="line;strokeWidth=1;fillColor=none;rotatable=0;labelPosition=right;points=[];portConstraint=eastwest;dashed=0;resizeWidth=1;" vertex="1" parent="GTZ52rKqXmYIKtmkYB2n-8">
          <mxGeometry x="9" y="22.5" width="162" height="7.500000000000001" as="geometry" />
        </mxCell>
        <mxCell id="GTZ52rKqXmYIKtmkYB2n-11" value="Review fillups in a browser with a PC at home" style="text;html=1;align=center;verticalAlign=middle;rotatable=0;whiteSpace=wrap;" vertex="1" parent="GTZ52rKqXmYIKtmkYB2n-8">
          <mxGeometry y="30.000000000000004" width="180" height="37.50000000000001" as="geometry" />
        </mxCell>
        <mxCell id="GTZ52rKqXmYIKtmkYB2n-17" value="" style="shape=ellipse;container=1;horizontal=1;horizontalStack=0;resizeParent=1;resizeParentMax=0;resizeLast=0;html=1;dashed=0;collapsible=0;" vertex="1" parent="A2cVZQFBHPuvANkPRbIw-1">
          <mxGeometry x="254" y="90" width="180" height="90" as="geometry" />
        </mxCell>
        <mxCell id="GTZ52rKqXmYIKtmkYB2n-18" value="UC3" style="html=1;strokeColor=none;fillColor=none;align=center;verticalAlign=middle;rotatable=0;" vertex="1" parent="GTZ52rKqXmYIKtmkYB2n-17">
          <mxGeometry width="180" height="22.5" as="geometry" />
        </mxCell>
        <mxCell id="GTZ52rKqXmYIKtmkYB2n-19" value="" style="line;strokeWidth=1;fillColor=none;rotatable=0;labelPosition=right;points=[];portConstraint=eastwest;dashed=0;resizeWidth=1;" vertex="1" parent="GTZ52rKqXmYIKtmkYB2n-17">
          <mxGeometry x="9" y="22.5" width="162" height="7.500000000000001" as="geometry" />
        </mxCell>
        <mxCell id="GTZ52rKqXmYIKtmkYB2n-20" value="Register to the service" style="text;html=1;align=center;verticalAlign=middle;rotatable=0;whiteSpace=wrap;" vertex="1" parent="GTZ52rKqXmYIKtmkYB2n-17">
          <mxGeometry y="30.000000000000004" width="180" height="37.50000000000001" as="geometry" />
        </mxCell>
        <mxCell id="GTZ52rKqXmYIKtmkYB2n-21" value="" style="shape=ellipse;container=1;horizontal=1;horizontalStack=0;resizeParent=1;resizeParentMax=0;resizeLast=0;html=1;dashed=0;collapsible=0;" vertex="1" parent="A2cVZQFBHPuvANkPRbIw-1">
          <mxGeometry x="40" y="340" width="180" height="90" as="geometry" />
        </mxCell>
        <mxCell id="GTZ52rKqXmYIKtmkYB2n-22" value="UC4" style="html=1;strokeColor=none;fillColor=none;align=center;verticalAlign=middle;rotatable=0;" vertex="1" parent="GTZ52rKqXmYIKtmkYB2n-21">
          <mxGeometry width="180" height="22.5" as="geometry" />
        </mxCell>
        <mxCell id="GTZ52rKqXmYIKtmkYB2n-23" value="" style="line;strokeWidth=1;fillColor=none;rotatable=0;labelPosition=right;points=[];portConstraint=eastwest;dashed=0;resizeWidth=1;" vertex="1" parent="GTZ52rKqXmYIKtmkYB2n-21">
          <mxGeometry x="9" y="22.5" width="162" height="7.500000000000001" as="geometry" />
        </mxCell>
        <mxCell id="GTZ52rKqXmYIKtmkYB2n-24" value="Add a vehicle" style="text;html=1;align=center;verticalAlign=middle;rotatable=0;whiteSpace=wrap;" vertex="1" parent="GTZ52rKqXmYIKtmkYB2n-21">
          <mxGeometry y="30.000000000000004" width="180" height="37.50000000000001" as="geometry" />
        </mxCell>
        <mxCell id="GTZ52rKqXmYIKtmkYB2n-1" value="Driver" style="shape=umlActor;verticalLabelPosition=bottom;verticalAlign=top;html=1;outlineConnect=0;" vertex="1" parent="1">
          <mxGeometry x="60" y="210" width="40" height="80" as="geometry" />
        </mxCell>
        <mxCell id="GTZ52rKqXmYIKtmkYB2n-7" value="" style="endArrow=none;startArrow=none;endFill=0;startFill=0;endSize=8;html=1;verticalAlign=bottom;labelBackgroundColor=none;strokeWidth=3;" edge="1" parent="1" source="GTZ52rKqXmYIKtmkYB2n-1" target="GTZ52rKqXmYIKtmkYB2n-2">
          <mxGeometry width="160" relative="1" as="geometry">
            <mxPoint x="270" y="580" as="sourcePoint" />
            <mxPoint x="430" y="580" as="targetPoint" />
          </mxGeometry>
        </mxCell>
        <mxCell id="GTZ52rKqXmYIKtmkYB2n-13" value="" style="endArrow=none;startArrow=none;endFill=0;startFill=0;endSize=8;html=1;verticalAlign=bottom;labelBackgroundColor=none;strokeWidth=3;" edge="1" parent="1" source="GTZ52rKqXmYIKtmkYB2n-1" target="GTZ52rKqXmYIKtmkYB2n-8">
          <mxGeometry width="160" relative="1" as="geometry">
            <mxPoint x="270" y="580" as="sourcePoint" />
            <mxPoint x="80" y="440" as="targetPoint" />
          </mxGeometry>
        </mxCell>
        <mxCell id="GTZ52rKqXmYIKtmkYB2n-16" value="&lt;font style=&quot;font-size: 24px&quot;&gt;&lt;b&gt;Use Case Diagram: Löpökulu&lt;/b&gt;&lt;/font&gt;" style="text;html=1;strokeColor=none;fillColor=none;align=center;verticalAlign=middle;whiteSpace=wrap;rounded=0;" vertex="1" parent="1">
          <mxGeometry x="40" y="30" width="750" height="20" as="geometry" />
        </mxCell>
        <mxCell id="GTZ52rKqXmYIKtmkYB2n-29" value="" style="endArrow=none;startArrow=none;endFill=0;startFill=0;endSize=8;html=1;verticalAlign=bottom;labelBackgroundColor=none;strokeWidth=3;" edge="1" parent="1" source="GTZ52rKqXmYIKtmkYB2n-1" target="GTZ52rKqXmYIKtmkYB2n-17">
          <mxGeometry width="160" relative="1" as="geometry">
            <mxPoint x="70" y="250" as="sourcePoint" />
            <mxPoint x="230" y="250" as="targetPoint" />
          </mxGeometry>
        </mxCell>
        <mxCell id="GTZ52rKqXmYIKtmkYB2n-31" value="" style="endArrow=none;startArrow=none;endFill=0;startFill=0;endSize=8;html=1;verticalAlign=bottom;labelBackgroundColor=none;strokeWidth=3;" edge="1" parent="1" source="GTZ52rKqXmYIKtmkYB2n-1" target="GTZ52rKqXmYIKtmkYB2n-21">
          <mxGeometry width="160" relative="1" as="geometry">
            <mxPoint x="330" y="580" as="sourcePoint" />
            <mxPoint x="490" y="580" as="targetPoint" />
          </mxGeometry>
        </mxCell>
      </root>
    </mxGraphModel>
  </diagram>
</mxfile>
